<svg xmlns="http://www.w3.org/2000/svg" width="105.163" height="197.184" viewBox="0 0 105.163 197.184"><defs><style>.a{fill:#006cb7;}.b,.c,.d{fill:#fff;}.b{font-size:10px;font-family:Roboto-Bold, Roboto;font-weight:700;letter-spacing:0.1em;}.d{opacity:0.27;}</style></defs><path class="a" d="M141.909,614.647,36.746,660.581V463.4H141.909Z" transform="translate(-36.746 -463.396)"/><text class="b" transform="translate(50.323 122.368)"><tspan x="-27.962" y="0">CERTIFIED</tspan><tspan x="-36.043" y="12">CONSULTANT</tspan></text><g transform="translate(24.125 34.898)"><path class="c" d="M88.241,501.674V491.546H85.726v.823a1.919,1.919,0,0,0,.022.3h-.064a3.658,3.658,0,0,0-3.19-1.376c-3.11,0-4.781,2.411-4.781,5.371s1.753,5.46,4.843,5.46a3.294,3.294,0,0,0,3-1.462H85.6a5.215,5.215,0,0,0-.042.571v.633c0,1.924-1.393,2.622-3.046,2.622a7.261,7.261,0,0,1-2.981-.7l-.8,2.055a8.633,8.633,0,0,0,3.83.928C85.37,506.771,88.241,505.377,88.241,501.674Zm-5.112-1.818c-1.735,0-2.708-1.4-2.708-3.279,0-1.817.909-3,2.537-3,1.458,0,2.662.655,2.662,3.108C85.62,499.116,84.416,499.856,83.129,499.856Z" transform="translate(-45.066 -487.533)"/><rect class="c" width="2.684" height="10.784" transform="translate(28.319 4.337)"/><path class="c" d="M73.055,488.579H70.391v11.65c0,3.09,1.84,3.471,3.319,3.471a6.077,6.077,0,0,0,.847-.064V501.29a3.935,3.935,0,0,1-.4.022c-.7,0-1.1-.3-1.1-1.484Z" transform="translate(-47.891 -488.579)"/><path class="c" d="M71.91,501.1l-1.037-1.922a5.326,5.326,0,0,1-3.11,1.183,3.067,3.067,0,0,1-3.234-2.853h7.443s.064-.721.064-1.038c0-2.853-1.671-5.118-4.778-5.118A5.332,5.332,0,0,0,61.78,497a5.524,5.524,0,0,0,5.8,5.642A6.745,6.745,0,0,0,71.91,501.1Zm-4.852-7.675a2.082,2.082,0,0,1,2.136,2.242H64.478A2.514,2.514,0,0,1,67.059,493.423Z" transform="translate(-51.213 -487.51)"/><path class="c" d="M64.454,500.89l-1.037-1.905a4.963,4.963,0,0,1-3.171,1.375,3.283,3.283,0,0,1-3.363-3.384,3.205,3.205,0,0,1,3.28-3.34,4.23,4.23,0,0,1,2.812,1.163l1.181-1.84a5.478,5.478,0,0,0-4.142-1.608,5.649,5.649,0,1,0,0,11.29A6.149,6.149,0,0,0,64.454,500.89Z" transform="translate(-54.155 -487.51)"/><path class="c" d="M90.941,491.345l.84,1.353-.747,1.141a3.21,3.21,0,0,1,2.4,4.16l.7,1.134,1.569-.181a5.653,5.653,0,0,0-4.756-7.605Z" transform="translate(-39.963 -487.512)"/><path class="c" d="M96.7,497.814,95.126,498l-.715-1.165a3.2,3.2,0,0,1-5.154-.019l-1.329-.085-.759,1.389a5.66,5.66,0,0,0,9.533-.3Z" transform="translate(-41.418 -485.436)"/><path class="c" d="M86.45,496.985a5.648,5.648,0,0,0,.489,2.3l.762-1.4,1.361.089a3.209,3.209,0,0,1,2.676-4.177l.729-1.113-.833-1.343A5.667,5.667,0,0,0,86.45,496.985Z" transform="translate(-41.695 -487.513)"/><rect class="c" width="2.661" height="2.39" transform="translate(28.334 0.286)"/></g><path class="d" d="M89.872,463.4H36.746V660.581l53.126-23.205Z" transform="translate(-36.746 -463.396)"/><g transform="translate(36.764 69.464)"><path class="c" d="M75.7,513.529l2.321,3.743-2.066,3.154a8.873,8.873,0,0,1,6.637,11.509l1.926,3.136,4.338-.5A15.641,15.641,0,0,0,75.7,513.529Z" transform="translate(-58.482 -513.519)"/><path class="c" d="M91.635,531.426l-4.357.5-1.98-3.223a8.864,8.864,0,0,1-14.257-.053l-3.675-.238-2.1,3.846a15.66,15.66,0,0,0,26.371-.834Z" transform="translate(-62.508 -507.776)"/><path class="c" d="M63.275,529.135a15.607,15.607,0,0,0,1.353,6.354l2.111-3.862,3.764.244a8.879,8.879,0,0,1,7.4-11.555l2.016-3.077-2.306-3.717A15.675,15.675,0,0,0,63.275,529.135Z" transform="translate(-63.275 -513.522)"/></g></svg>